<svg viewBox="0 0 140 36" fill="none" xmlns="http://www.w3.org/2000/svg">
<path d="M29.4191 0H35.5356L8.37479 28.9236H2.25824L29.4191 0Z" fill="#00ADB5"/>
<path d="M8.54 15.7561L0 0H23.3593L19.1731 4.4623H7.71411L11.7893 12.2849L8.54 15.7561Z" fill="white"/>
<path d="M29.1208 13.2438L37.6608 28.9999H14.3015L18.4877 24.5376H29.9491L25.8714 16.7126L29.1208 13.2438Z" fill="white"/>
<path d="M53.1808 29.144C52.1408 29.144 51.3328 28.992 50.7568 28.688C50.1968 28.384 49.8128 27.944 49.6048 27.368C49.3968 26.776 49.2928 26.064 49.2928 25.232V17.696H47.9488V15.128H49.2928V10.904H53.2528V15.128H55.2208V17.696H53.2528V24.848C53.2528 25.248 53.3648 25.536 53.5888 25.712C53.8288 25.888 54.1248 25.976 54.4768 25.976C54.6848 25.976 54.8768 25.968 55.0528 25.952C55.2288 25.92 55.3888 25.896 55.5328 25.88V28.952C55.3248 28.984 54.9968 29.024 54.5488 29.072C54.1008 29.12 53.6448 29.144 53.1808 29.144ZM57.3931 29V9.56H61.2811V16.352C61.7931 15.84 62.3291 15.472 62.8891 15.248C63.4491 15.008 64.0491 14.888 64.6891 14.888C65.2491 14.888 65.7131 15.032 66.0811 15.32C66.4651 15.592 66.7531 15.976 66.9451 16.472C67.1371 16.952 67.2331 17.504 67.2331 18.128V29H63.3451V18.68C63.3451 18.344 63.2891 18.088 63.1771 17.912C63.0651 17.736 62.8571 17.648 62.5531 17.648C62.3931 17.648 62.2011 17.696 61.9771 17.792C61.7531 17.872 61.5211 17.992 61.2811 18.152V29H57.3931ZM74.1401 29.24C73.1481 29.24 72.2841 29.072 71.5481 28.736C70.8281 28.4 70.2681 27.896 69.8681 27.224C69.4841 26.552 69.2921 25.712 69.2921 24.704V19.424C69.2921 18.416 69.4841 17.576 69.8681 16.904C70.2681 16.232 70.8281 15.728 71.5481 15.392C72.2841 15.056 73.1481 14.888 74.1401 14.888C75.1321 14.888 75.9881 15.056 76.7081 15.392C77.4441 15.728 78.0121 16.232 78.4121 16.904C78.8121 17.576 79.0121 18.416 79.0121 19.424V24.704C79.0121 25.712 78.8121 26.552 78.4121 27.224C78.0121 27.896 77.4441 28.4 76.7081 28.736C75.9881 29.072 75.1321 29.24 74.1401 29.24ZM74.1641 26.648C74.4201 26.648 74.6201 26.584 74.7641 26.456C74.9081 26.312 75.0041 26.12 75.0521 25.88C75.1161 25.624 75.1481 25.32 75.1481 24.968V19.16C75.1481 18.808 75.1161 18.512 75.0521 18.272C75.0041 18.016 74.9081 17.824 74.7641 17.696C74.6201 17.552 74.4201 17.48 74.1641 17.48C73.9081 17.48 73.7081 17.552 73.5641 17.696C73.4201 17.824 73.3161 18.016 73.2521 18.272C73.1881 18.512 73.1561 18.808 73.1561 19.16V24.968C73.1561 25.32 73.1881 25.624 73.2521 25.88C73.3161 26.12 73.4201 26.312 73.5641 26.456C73.7081 26.584 73.9081 26.648 74.1641 26.648ZM81.1816 29V15.128H85.0216V16.232C85.5336 15.736 86.0616 15.384 86.6056 15.176C87.1656 14.968 87.7336 14.864 88.3096 14.864C88.8696 14.864 89.3496 15.008 89.7496 15.296C90.1656 15.568 90.4776 15.976 90.6856 16.52C91.2296 15.912 91.7976 15.488 92.3896 15.248C92.9976 14.992 93.6056 14.864 94.2136 14.864C94.7576 14.864 95.2296 15 95.6296 15.272C96.0296 15.528 96.3416 15.912 96.5656 16.424C96.7896 16.92 96.9016 17.52 96.9016 18.224V29H93.0616V18.632C93.0616 18.248 92.9896 17.976 92.8456 17.816C92.7176 17.64 92.5176 17.552 92.2456 17.552C92.0856 17.552 91.8856 17.6 91.6456 17.696C91.4056 17.776 91.1736 17.896 90.9496 18.056C90.9496 18.088 90.9496 18.12 90.9496 18.152C90.9496 18.168 90.9496 18.192 90.9496 18.224V29H87.1576V18.632C87.1576 18.248 87.0856 17.976 86.9416 17.816C86.7976 17.64 86.5896 17.552 86.3176 17.552C86.1416 17.552 85.9336 17.6 85.6936 17.696C85.4696 17.776 85.2456 17.896 85.0216 18.056V29H81.1816ZM102.108 29.24C101.404 29.24 100.812 29.072 100.332 28.736C99.852 28.4 99.492 27.976 99.252 27.464C99.012 26.936 98.892 26.4 98.892 25.856C98.892 24.992 99.06 24.264 99.396 23.672C99.748 23.08 100.204 22.584 100.764 22.184C101.324 21.784 101.94 21.448 102.612 21.176C103.284 20.888 103.948 20.632 104.604 20.408V19.016C104.604 18.776 104.58 18.568 104.532 18.392C104.484 18.2 104.404 18.056 104.292 17.96C104.18 17.848 104.012 17.792 103.788 17.792C103.564 17.792 103.388 17.84 103.26 17.936C103.148 18.032 103.068 18.168 103.02 18.344C102.972 18.504 102.94 18.688 102.924 18.896L102.828 19.904L99.18 19.76C99.26 18.096 99.7 16.872 100.5 16.088C101.316 15.288 102.532 14.888 104.148 14.888C105.556 14.888 106.604 15.28 107.292 16.064C107.996 16.832 108.348 17.832 108.348 19.064V25.544C108.348 26.12 108.356 26.624 108.372 27.056C108.404 27.488 108.436 27.864 108.468 28.184C108.516 28.504 108.556 28.776 108.588 29H105.084C105.036 28.632 104.98 28.232 104.916 27.8C104.852 27.368 104.804 27.112 104.772 27.032C104.612 27.608 104.308 28.12 103.86 28.568C103.428 29.016 102.844 29.24 102.108 29.24ZM103.5 26.6C103.66 26.6 103.804 26.568 103.932 26.504C104.076 26.44 104.204 26.352 104.316 26.24C104.428 26.128 104.524 26.016 104.604 25.904V22.112C104.284 22.304 103.988 22.504 103.716 22.712C103.444 22.904 103.212 23.12 103.02 23.36C102.828 23.6 102.676 23.864 102.564 24.152C102.468 24.424 102.42 24.736 102.42 25.088C102.42 25.552 102.516 25.92 102.708 26.192C102.9 26.464 103.164 26.6 103.5 26.6ZM110.282 29V26.48L114.098 17.984H110.57V15.128H118.178V17.504L114.314 26.144H118.226V29H110.282ZM124.624 29.24C123.632 29.24 122.768 29.072 122.032 28.736C121.312 28.4 120.752 27.896 120.352 27.224C119.968 26.552 119.776 25.712 119.776 24.704V19.424C119.776 18.416 119.968 17.576 120.352 16.904C120.752 16.232 121.312 15.728 122.032 15.392C122.768 15.056 123.632 14.888 124.624 14.888C125.616 14.888 126.472 15.056 127.192 15.392C127.928 15.728 128.496 16.232 128.896 16.904C129.296 17.576 129.496 18.416 129.496 19.424V24.704C129.496 25.712 129.296 26.552 128.896 27.224C128.496 27.896 127.928 28.4 127.192 28.736C126.472 29.072 125.616 29.24 124.624 29.24ZM124.648 26.648C124.904 26.648 125.104 26.584 125.248 26.456C125.392 26.312 125.488 26.12 125.536 25.88C125.6 25.624 125.632 25.32 125.632 24.968V19.16C125.632 18.808 125.6 18.512 125.536 18.272C125.488 18.016 125.392 17.824 125.248 17.696C125.104 17.552 124.904 17.48 124.648 17.48C124.392 17.48 124.192 17.552 124.048 17.696C123.904 17.824 123.8 18.016 123.736 18.272C123.672 18.512 123.64 18.808 123.64 19.16V24.968C123.64 25.32 123.672 25.624 123.736 25.88C123.8 26.12 123.904 26.312 124.048 26.456C124.192 26.584 124.392 26.648 124.648 26.648ZM135.962 29.144C134.922 29.144 134.114 28.992 133.538 28.688C132.978 28.384 132.594 27.944 132.386 27.368C132.178 26.776 132.074 26.064 132.074 25.232V17.696H130.73V15.128H132.074V10.904H136.034V15.128H138.002V17.696H136.034V24.848C136.034 25.248 136.146 25.536 136.37 25.712C136.61 25.888 136.906 25.976 137.258 25.976C137.466 25.976 137.658 25.968 137.834 25.952C138.01 25.92 138.17 25.896 138.314 25.88V28.952C138.106 28.984 137.778 29.024 137.33 29.072C136.882 29.12 136.426 29.144 135.962 29.144Z" fill="#EEEEEE"/>
</svg>
